<svg width="280" height="430" viewBox="0 0 280 430" fill="none" xmlns="http://www.w3.org/2000/svg">
<path fill-rule="evenodd" clip-rule="evenodd" d="M251.763 130.38C248.509 130.355 247.931 130.821 248.378 133.348C248.545 134.4 248.59 135.194 248.41 135.142C248.273 135.134 247.669 135.265 247.103 135.523C246.492 135.779 243.913 135.96 241.349 135.892C239.691 135.873 237.698 135.868 236.054 135.864L236.051 135.864L236.024 135.864C235.091 135.862 234.273 135.86 233.694 135.856C230.158 135.939 229.098 135.251 229.236 132.925C229.363 130.766 228.847 130.193 226.786 130.155C224.082 130.12 195.757 129.905 173.249 129.784C170.763 129.764 167.65 129.742 164.371 129.72L164.366 129.72L164.347 129.72L164.337 129.719C158.981 129.683 153.186 129.643 148.957 129.599C146.914 129.591 144.411 129.579 141.699 129.566C135.402 129.535 127.981 129.498 122.596 129.5C114.892 129.504 105.863 129.429 102.522 129.315C99.1791 129.242 93.2215 129.182 89.2312 129.196C86.6887 129.207 81.785 129.2 76.5206 129.192L76.5068 129.192C73.608 129.188 70.6003 129.183 67.8178 129.181C60.0225 129.179 52.6361 129.243 51.4406 129.297L49.2325 129.417L49.1024 131.618C49.0287 132.864 48.7339 133.972 48.3536 134.2C47.7325 134.621 37.7194 134.905 33.3326 134.646C30.271 134.465 30.1845 134.376 29.5658 130.881L29.2985 129.198L26.4172 129.069C26.1987 129.06 25.9907 129.05 25.7929 129.041L25.7908 129.04L25.7882 129.04C24.498 128.978 23.6385 128.937 23.0698 129.323C21.9347 130.094 21.9579 132.569 22.0273 139.983C22.0326 140.55 22.0382 141.146 22.0436 141.772C22.1248 148.154 22.1795 156.534 22.1772 160.452C22.1772 162.57 22.2002 165.921 22.2246 169.477C22.2448 172.43 22.266 175.523 22.2759 178.17C22.2868 181.088 22.3109 184.944 22.3351 188.801L22.3351 188.802C22.3593 192.658 22.3835 196.514 22.3943 199.432C22.4618 205.271 22.4659 213.732 22.4317 218.189C22.4431 222.649 22.4693 230.736 22.5181 236.115C22.6595 252.336 22.7064 259.299 22.7326 267.386C22.7563 271.638 22.7869 278.1 22.7993 281.768L22.8026 282.751L22.8026 282.752C22.8144 286.313 22.8295 290.833 22.8551 293.233C22.8375 295.857 23.01 298.368 23.2164 298.755C23.5019 299.356 24.1775 299.562 26.0053 299.67C30.1636 299.916 30.45 299.725 30.5974 297.233C30.6883 295.696 30.9658 294.879 31.4906 294.535C32.0635 294.152 34.7767 294.02 40.3688 294.059C49.583 294.103 50.0326 294.255 49.8533 297.287C49.8411 297.493 49.814 297.683 49.789 297.858C49.7417 298.189 49.7021 298.466 49.7862 298.698C50.2168 299.885 53.8881 299.899 76.3526 299.983H76.3535H76.3552C78.9099 299.993 81.7076 300.003 84.7711 300.017C87.2203 300.032 90.034 300.044 92.8182 300.056L92.8195 300.056H92.8202C97.2261 300.076 101.558 300.094 104.253 300.126C105.307 300.128 106.368 300.131 107.389 300.134H107.391H107.392C110.635 300.143 113.468 300.15 114.34 300.138C115.49 300.081 119.387 300.103 123.05 300.194C126.638 300.284 135.816 300.344 143.643 300.395H143.644L144.131 300.398C162.973 300.469 180.851 300.567 191.116 300.673C211.144 300.857 228.534 300.675 229.431 300.228C229.667 300.117 229.952 299.175 230.011 298.179C230.124 296.268 231.064 295.115 232.434 295.196C232.891 295.223 236.514 295.229 240.504 295.214L240.847 295.214C245.979 295.208 247.766 295.205 248.494 296.082C248.884 296.551 248.971 297.271 249.104 298.376L249.115 298.474L249.358 300.572L252.412 300.877C256.652 301.295 257.139 300.823 256.973 296.646C256.891 294.932 256.848 290.22 256.856 286.22C256.863 282.219 256.837 274.132 256.769 268.293C256.609 234.953 256.474 209.22 256.39 193.171L256.39 193.133L256.39 193.121L256.372 189.709C256.361 180.89 256.303 169.775 256.27 163.429L256.265 162.34L256.26 161.362C256.196 156.285 256.179 149.2 256.168 144.539L256.168 144.531L256.167 143.784C256.166 143.442 256.165 143.117 256.164 142.81C256.143 132.306 256.07 131.218 255.133 130.788C254.734 130.556 253.185 130.381 251.763 130.38ZM254.18 132.94C254.297 133.281 254.242 133.444 253.975 133.303C253.708 133.163 253.543 132.861 253.557 132.612C253.592 132.03 253.904 132.174 254.18 132.94ZM254.295 135.656C254.28 135.905 254.095 135.936 253.828 135.795C253.607 135.657 253.398 135.311 253.41 135.104C253.425 134.855 253.656 134.827 253.877 134.965C254.144 135.105 254.307 135.448 254.295 135.656ZM220.888 138.392C221.926 139.453 222.23 142.055 221.902 146.829C221.626 150.73 221.729 166.824 222.051 169.135C222.251 170.397 222.309 176.402 222.179 182.479C222.094 188.559 222.037 198.058 222.119 203.647C222.201 209.237 222.157 213.861 222.061 213.938C222.013 213.977 219.355 213.945 216.197 213.842L210.521 213.673L210.194 209.903C207.591 178.7 180.863 153.782 146.137 150.146L139.985 149.491L139.937 143.32C139.908 139.942 139.983 137.113 140.08 137.035C140.51 136.727 167.841 136.716 176.259 137.047C181.155 137.211 188.809 137.288 193.215 137.215C197.621 137.142 204.361 137.165 208.118 137.221C211.918 137.32 215.083 137.299 215.179 137.221C215.276 137.143 216.377 137.125 217.611 137.198C219.347 137.301 220.066 137.551 220.888 138.392ZM138.151 138.63C138.1 139.502 138.12 142.254 138.199 144.801C138.311 149.892 138.258 150.014 135.561 149.855C134.648 149.801 131.838 150.01 129.343 150.321C106.897 153.037 87.3665 165.387 76.6172 183.548C72.3874 190.717 69.3354 200.455 68.8761 208.222C68.7362 210.589 68.433 212.613 68.1972 212.724C67.5835 213.022 57.3949 213.17 57.1379 212.863C56.7488 212.465 56.6233 206.831 56.8024 196.047C56.9177 190.219 56.8896 183.716 56.7357 181.665C56.5843 179.572 56.5046 173.941 56.5128 169.148C56.5205 165.684 56.5226 160.722 56.5243 156.454L56.5243 156.433C56.525 154.754 56.5257 153.182 56.5266 151.853C56.5677 141.853 56.7494 138.78 57.5036 137.658C58.4096 136.294 60.6781 135.928 66.4839 136.229C69.5023 136.366 72.3885 136.411 72.896 136.358C74.6064 136.126 103.072 136.307 113.231 136.657C118.77 136.818 124.953 136.933 126.974 136.886C128.997 136.797 132.342 136.828 134.444 136.952L138.196 137.09L138.151 138.63ZM247.895 149.281C248.593 150.656 248.461 158.317 247.772 159.11C247.04 159.859 240.829 160.2 234.201 159.85C230.774 159.648 230.367 159.54 229.825 158.633C229.033 157.294 229.013 149.875 229.798 149.004C230.485 148.253 235.406 148.002 243.09 148.331C246.885 148.513 247.612 148.64 247.895 149.281ZM138.248 154.056C138.319 155.185 138.26 156.182 138.113 156.34C138.009 156.543 137.088 156.613 136.082 156.554C135.077 156.494 132.268 156.703 129.816 157.059C117.658 158.716 107.321 162.94 98.2396 169.947C85.3646 179.855 78.0133 192.508 76.3933 207.499L75.7949 212.965L73.8128 213.14C70.7267 213.374 70.6884 213.247 71.3928 207.537C73.261 192.227 80.57 178.739 92.3965 168.726C103.448 159.418 117.171 153.769 132.249 152.368L132.304 152.363C136.104 151.997 137.416 151.871 137.907 152.445C138.166 152.748 138.197 153.245 138.245 154.005L138.248 154.056ZM154 153.653C183.155 160.002 203.997 181.321 207.394 208.404C208.116 214.031 208.063 214.153 205.047 213.975C204.041 213.915 203.277 213.662 203.205 213.324C203.139 213.106 202.953 211.496 202.728 209.558C202.691 209.239 202.653 208.912 202.614 208.58C200.468 189.823 188.291 173.183 169.855 163.925C162.062 160.006 154.668 157.86 145.515 156.778L140.049 156.163L140.03 154.161L140.008 152.201L144.989 152.496C147.731 152.657 151.78 153.189 154 153.653ZM48.604 147.801C48.9018 148.194 49.0891 150.455 49.0665 153.163C49.074 156.914 48.9188 157.989 48.3965 158.291C48.0162 158.519 44.0593 158.744 39.5183 158.767C32.4085 158.805 31.2686 158.696 30.7064 158.121C29.7959 157.234 29.6326 149.139 30.4782 148.022C31.0226 147.346 31.9006 147.231 37.2259 147.129C46.2672 146.996 48.0036 147.099 48.604 147.801ZM246.759 173.137C248.273 173.893 248.724 175.587 248.493 179.491C248.198 184.475 247.917 184.583 237.108 184.361C232.483 184.255 231.574 184.118 230.788 183.446C229.738 182.592 229.294 180.024 229.467 176.325C229.615 173.041 230.277 172.705 236.328 172.729C236.73 172.728 237.135 172.728 237.536 172.728L237.547 172.728L237.583 172.728C239.907 172.725 242.08 172.723 242.705 172.689C243.074 172.691 243.485 172.677 243.86 172.664C244.275 172.65 244.646 172.637 244.862 172.65C245.276 172.633 246.134 172.85 246.759 173.137ZM48.4175 172.671C49.0636 173.376 49.2788 174.389 49.2514 177.18C49.2706 179.182 49.0589 181.211 48.8442 181.74C48.2728 182.873 46.639 183.36 43.7145 183.188C42.3894 183.109 41.4656 183.221 41.4484 183.512C41.4288 183.844 41.246 183.834 40.8952 183.563C40.5444 183.292 38.8104 183.148 36.4676 183.218C33.3456 183.284 32.3909 183.144 31.5979 182.597C30.3169 181.771 30.2476 181.392 30.1423 176.968C30.0573 173.754 30.1275 173.341 31.0571 172.354C32.0324 171.37 32.4029 171.308 36.1141 171.361C47.1488 171.638 47.5576 171.703 48.4175 172.671ZM248.02 198.343C248.359 198.821 248.635 201.13 248.634 203.464C248.69 207.176 248.612 207.713 247.847 208.252C247.226 208.673 244.878 208.826 238.959 208.893L230.978 208.922L230.21 207.96C229.655 207.26 229.483 206.291 229.584 204.589C229.66 203.301 229.636 201.383 229.558 200.378C229.323 197.363 229.988 196.986 235.346 197.094C237.864 197.159 240.664 197.116 241.633 197.007C244.722 196.731 247.394 197.305 248.02 198.343ZM48.5999 196.73C49.1163 197.302 49.3045 198.772 49.3365 202.108C49.3887 206.654 49.3381 206.734 48.2478 207.336C47.4415 207.789 46.1041 207.918 43.4513 207.803C41.4407 207.684 38.0494 207.651 35.9376 207.693C30.5234 207.748 30.3937 207.615 30.2373 201.73C30.2348 201.652 30.2323 201.576 30.2298 201.501L30.2235 201.311C30.142 198.855 30.0973 197.507 30.7462 196.766C31.5352 195.865 33.35 195.861 37.3715 195.853L37.6591 195.852L37.9675 195.851C47.598 195.837 47.8265 195.85 48.5999 196.73ZM222.146 217.152C222.224 218.157 222.308 220.621 222.276 222.703C222.293 224.746 222.363 229.001 222.455 232.091C222.548 235.181 222.635 244.563 222.644 252.941C222.653 261.318 222.707 270.49 222.766 273.37C222.825 276.249 222.703 281.409 222.499 284.857C222.103 292.335 221.898 292.698 217.934 293.047C216.551 293.174 211.507 293.168 206.699 293.05C201.939 292.894 197.083 292.816 195.936 292.831C194.789 292.847 190.248 292.87 185.846 292.86C181.445 292.85 174.934 292.841 171.401 292.882C163.374 292.908 147.568 292.682 143.866 292.464L141.079 292.299L140.898 290.705C140.81 289.866 140.715 286.818 140.702 283.941L140.689 278.731L145.108 278.45C166.003 277.143 185.245 267.36 197.583 251.793C204.868 242.596 209.751 229.798 210.444 218.086L210.616 215.179L213.504 215.183C215.063 215.192 217.627 215.26 219.183 215.31L222.021 215.395L222.146 217.152ZM207.391 220.865C206.449 229.812 204.066 236.756 199.237 244.764C195.624 250.802 191.303 255.632 184.993 260.76C175.553 268.413 164.955 273.163 152.587 275.266C149.113 275.853 141.055 276.419 140.752 276.109C140.623 275.976 140.588 275.016 140.649 273.978L140.762 272.067L145.876 271.661C154.863 270.9 164.008 268.231 172.432 263.811C177.589 261.115 186.736 253.778 190.195 249.565C197.363 240.778 201.461 231.184 202.817 219.886L203.419 215.129L207.989 215.399L207.391 220.865ZM247.755 222.208C248.493 222.918 248.631 223.677 248.675 227.597C248.68 231.39 248.578 232.342 248 232.808C247.47 233.236 245.168 233.391 239.297 233.419C238.823 233.421 238.373 233.424 237.945 233.426C233.299 233.451 231.305 233.461 230.449 232.48C229.805 231.743 229.804 230.445 229.801 228.173C229.801 228.026 229.801 227.875 229.801 227.72C229.8 227.588 229.8 227.453 229.799 227.315C229.734 221.435 229.879 221.318 235.138 221.546C238.203 221.685 243.982 221.652 246.284 221.496C246.607 221.473 247.229 221.802 247.755 222.208ZM68.4611 215.241C68.4292 215.781 68.6882 218.38 68.9904 221.023C72.3573 247.062 93.025 268.997 120.943 276.106C125.776 277.35 135.323 278.747 137.447 278.498L138.878 278.332L138.955 282.463C138.979 283.542 139.001 284.832 139.022 286.062L139.023 286.079L139.023 286.08L139.023 286.082L139.023 286.085C139.045 287.414 139.067 288.671 139.088 289.514L139.188 292.479L131.951 292.343C127.92 292.272 123.521 292.22 122.145 292.222C120.77 292.224 117.056 292.213 113.896 292.152C110.735 292.09 105.367 292.148 101.966 292.28C98.5188 292.41 90.4951 292.395 84.083 292.266C77.6709 292.137 69.7435 292.044 66.4436 292.015C63.1894 291.99 60.0364 291.804 59.4979 291.605C57.4376 290.775 57.0642 289.336 57.1087 282.378C57.1061 281.843 57.1035 281.222 57.1006 280.534L57.1003 280.475L57.1003 280.474C57.0837 276.557 57.0582 270.527 56.9845 265.867C56.8835 255.942 56.8505 231.684 56.9244 220.352L56.9532 214.436L58.0647 214.251C58.6204 214.159 60.8668 214.167 63.0194 214.211C65.172 214.254 67.2789 214.296 67.7383 214.281C68.2891 214.272 68.5029 214.535 68.4611 215.241ZM76.0746 218.316C78.1408 239.985 93.8256 259.333 115.816 267.426C122.324 269.811 125.808 270.6 132.648 271.254L138.848 271.871L138.91 273.916C138.89 275.041 138.828 276.079 138.732 276.156C137.819 276.853 125.408 275.036 119.138 273.29C106.284 269.655 93.1668 261.17 85.0421 251.229C76.8383 241.075 71.7569 228.522 71.2466 216.989L71.1247 214.398L75.7399 214.67L76.0746 218.316ZM48.8491 221.209C49.1926 221.604 49.4712 223.871 49.5523 226.377C49.554 226.439 49.5557 226.501 49.5573 226.563L49.5607 226.689C49.6271 229.142 49.6636 230.493 49.01 231.243C48.2087 232.161 46.3703 232.176 42.2783 232.209L41.8246 232.213C32.829 232.348 31.3692 232.221 30.8773 231.233C30.6277 230.801 30.4502 228.374 30.4148 225.871C30.3975 222.286 30.5046 221.25 31.0293 220.906C31.6961 220.487 39.6913 220.209 45.502 220.427C47.5608 220.507 48.4648 220.728 48.8491 221.209ZM247.908 246.765C248.643 247.517 248.835 248.153 249.057 251.375C249.315 254.766 248.998 256.248 247.745 258.05C247.092 259.011 246.726 259.781 246.954 259.795C247.183 259.808 247.209 260.143 247.05 260.509C246.739 261.116 246.696 261.072 246.463 260.349C246.305 259.923 246.392 259.22 246.643 258.86C247.05 258.175 246.73 258.156 241.918 258.122C233.62 258.09 230.974 257.851 230.381 257.024C230.083 256.631 229.855 254.284 229.817 251.822C229.808 248.113 229.95 247.246 230.531 246.738C231.106 246.314 233.134 246.142 238.5 246.126C239.839 246.12 241.14 246.112 242.292 246.105L242.293 246.105C244.535 246.091 246.209 246.081 246.48 246.097C246.894 246.08 247.565 246.369 247.908 246.765ZM49.1725 245.984C49.4221 246.415 49.5996 248.843 49.635 251.346C49.6523 254.931 49.5452 255.967 49.0229 256.269C48.6426 256.497 46.2011 256.686 43.541 256.696C41.3629 256.669 38.4741 256.685 36.4168 256.696L36.4117 256.696C35.9606 256.699 35.5496 256.701 35.1949 256.703C31.8901 256.757 31.6641 256.702 31.0784 255.751C30.7039 255.104 30.4563 253.088 30.4233 250.544L30.4218 250.424C30.3897 247.77 30.3726 246.365 31.0659 245.63C31.8454 244.802 33.5227 244.821 37.0858 244.86L37.2249 244.861C48.3102 245.058 48.7214 245.082 49.1725 245.984ZM248.237 271.457C249.226 272.557 249.312 281.189 248.356 281.842C247.403 282.452 231.99 282.542 231.065 281.904C230.666 281.672 230.22 280.687 230.089 279.804C229.741 277.157 230.174 271.39 230.742 271.09C231.543 270.721 236.551 270.558 246.359 270.637C246.999 270.675 247.85 271.017 248.237 271.457ZM49.15 270.405C49.8778 271.282 50.1423 279.216 49.4893 280.178C48.8339 281.181 47.1741 281.333 38.886 281.135C32.7506 280.981 31.702 280.877 31.2338 280.266C30.8927 279.829 30.6426 277.856 30.67 275.065C30.6577 271.397 30.8055 270.447 31.3784 270.064C32.2353 269.531 38.2126 269.259 44.2036 269.53C47.6789 269.693 48.7226 269.88 49.15 270.405ZM109.385 213.324C107.94 213.313 106.47 213.302 105.003 213.29H105.002L104.999 213.29C96.6094 213.224 88.3331 213.16 85.3649 213.197C80.2755 213.188 78.9047 213.107 78.6094 212.673C78.1077 211.851 79.1413 204.452 80.4216 199.86C82.4556 192.603 85.7053 186.502 91.0913 179.944C94.0589 176.285 103.588 168.679 107.894 166.433C115.46 162.545 124.283 159.899 132.539 159.095C138.169 158.535 138.176 158.871 138.232 161.925L138.232 161.926C138.236 162.15 138.241 162.387 138.248 162.64V213.324L109.385 213.324ZM195.228 192.348C187.582 176.642 171.485 164.272 153.778 160.517C149.61 159.645 143.651 158.835 141.585 158.879L140.024 158.912L140.008 164.621L140.409 213.197L160.472 213.258C161.915 213.677 193.307 213.99 198.096 213.648L200.398 213.492L200.359 211.822C200.178 206.352 198.009 198.055 195.228 192.348ZM200.327 218.572C199.288 236.14 187.104 253.758 169.992 262.416C164.129 265.404 156.504 267.954 151.092 268.76C147.344 269.33 141.13 269.713 140.873 269.406L140.424 215.05H163.989C164.037 215.011 168.623 214.99 174.167 215.068C174.603 215.071 175.045 215.074 175.49 215.077L175.65 215.078L175.651 215.078C180.828 215.112 186.432 215.149 188.611 215.088C190.997 215.062 194.662 215.112 196.766 215.194L200.516 215.374L200.327 218.572ZM133.276 269.166L138.605 269.772L138.421 214.65H111.371C106.106 214.589 98.7791 214.572 95.1077 214.564L95.1011 214.564H95.0971C94.5918 214.563 94.0578 214.561 93.5055 214.56C90.0487 214.552 85.8756 214.542 83.5425 214.548L78.5927 214.506L78.519 215.752C78.4061 217.662 79.6793 224.822 80.7884 228.555C82.0891 232.925 85.6521 240.137 88.4062 243.968C91.6261 248.451 97.9538 254.659 102.58 257.85C112.008 264.367 121.432 267.841 133.276 269.166Z" fill="#3898B7"/>
<path d="M136.978 171.333C140.491 170.915 144.505 171.166 149.022 172.086C152.869 172.922 156.089 174.427 158.682 176.601C162.529 179.945 164.286 184.334 163.951 189.769C163.867 191.859 163.366 193.865 162.446 195.788C161.275 198.297 159.435 200.47 156.925 202.31C149.398 207.911 144.84 214.433 143.251 221.873C143.083 222.877 142.958 224.883 142.874 227.893C142.874 231.07 142.832 232.742 142.749 232.91C141.996 233.495 140.992 233.787 139.738 233.787C137.814 233.787 136.81 233.578 136.727 233.16C136.392 232.659 136.392 228.938 136.727 221.999C137.73 212.719 141.201 204.734 147.14 198.046C148.311 196.708 149.147 195.412 149.649 194.158C150.234 192.653 150.485 190.438 150.402 187.511C150.402 183.247 149.9 180.614 148.896 179.611C147.976 178.607 146.471 177.855 144.38 177.353C142.038 177.019 139.571 176.977 136.978 177.228C136.81 177.311 136.643 177.353 136.476 177.353C133.716 177.938 131.248 179.067 129.074 180.739C128.154 181.408 127.903 181.742 128.321 181.742L129.576 182.244C132.252 183.498 133.549 185.714 133.465 188.891C133.465 190.145 133.13 191.357 132.461 192.528C131.207 194.869 129.116 196.039 126.188 196.039C123.01 196.039 120.835 194.827 119.665 192.402C119.079 191.232 118.786 189.769 118.786 188.013C118.954 184.919 119.999 182.035 121.923 179.36C123.428 177.437 124.934 176.015 126.439 175.096C129.618 173.006 133.13 171.752 136.978 171.333ZM137.856 243.444C140.783 242.775 143.334 243.486 145.509 245.576C147.098 247.332 147.893 249.255 147.893 251.345C147.893 252.682 147.6 253.936 147.014 255.107C145.509 257.95 143.041 259.455 139.612 259.622C136.434 259.622 134.05 258.2 132.461 255.358C131.792 254.104 131.458 252.766 131.458 251.345C131.458 250.091 131.75 248.878 132.336 247.708C133.423 245.367 135.263 243.946 137.856 243.444Z" fill="#3898B7"/>
</svg>
